<svg id="Calque_1" data-name="Calque 1" xmlns="http://www.w3.org/2000/svg" viewBox="0 0 256 256"><defs><style>.cls-1{fill:#45ddb5;}</style></defs><path class="cls-1" d="M127.86,126.33c16.12,0,29.19-15.88,29.19-35.46s-4.29-35.46-29.19-35.46S98.67,71.29,98.67,90.87,111.74,126.33,127.86,126.33Zm-5.56-18.92a7.5,7.5,0,0,0,12.33.48,1.5,1.5,0,1,1,2.59,1.51,10.49,10.49,0,0,1-17.52-.48C118.66,107.29,121.25,105.79,122.3,107.41Z"/><path class="cls-1" d="M72.72,180.46c0-1.19,0-.33,0,0Z"/><path class="cls-1" d="M183,181.4c0-.33,0-2.27,0,0Z"/><path class="cls-1" d="M162.36,161.61a1.64,1.64,0,0,0,1.65,1.64c.6,0,.77,0,1,0h.68V160H164A1.65,1.65,0,0,0,162.36,161.61Z"/><path class="cls-1" d="M182.93,179c-.54-34.11-5-43.83-39.09-50,0,0-4.8,6.11-16,6.11s-16-6.11-16-6.11c-33.72,6.08-38.44,15.66-39.07,48.87,0,2.72-.07,2.86-.08,2.54v3.59s8.12,16.36,55.14,16.36S183,184.05,183,184.05V181.4A20.55,20.55,0,0,1,182.93,179Zm-28.35-20.39h1.35v3a1.61,1.61,0,0,0,1.58,1.63l1.14,0h.43v-4.64h1.35v6h-.69l-2.24,0a3,3,0,0,1-2.92-3Zm-3.56,6h-3.5a5.31,5.31,0,0,1-.1-10.62h.1a4.3,4.3,0,0,1,2.95,1.26l-1,1a2.92,2.92,0,0,0-2.06-.86,4,4,0,0,0,.07,7.92H151Zm1-1.48V154h1.34v9.12a2.78,2.78,0,0,0,2.74,2.81h4.37v1.34h-4.37A4.12,4.12,0,0,1,152,163.14Zm15,3.41a3,3,0,0,1-3,3l-8.75,0h-.68v-1.35h.67l8.76,0a1.64,1.64,0,0,0,1.64-1.64v-1.93l-.73,0H164a3,3,0,0,1,0-6h3Z"/></svg>
